HIERARCHY
ROOT Hips
{
    OFFSET 0.000000 0.000000 0.000000
    CHANNELS 6 Xposition Yposition Zposition Zrotation Xrotation Yrotation
    JOINT Spine
    {
        OFFSET -0.000000 7.573766 0.000000
        CHANNELS 3 Zrotation Xrotation Yrotation
        JOINT Spine1
        {
            OFFSET -0.000000 21.635258 0.000000
            CHANNELS 3 Zrotation Xrotation Yrotation
            JOINT Neck
            {
                OFFSET -0.000000 21.546408 1.958764
                CHANNELS 3 Zrotation Xrotation Yrotation
                JOINT Head
                {
                    OFFSET -0.000000 12.930820 -1.847260
                    CHANNELS 3 Zrotation Xrotation Yrotation
                    End Site
                    {
                        OFFSET -0.000000 23.090748 0.000000
                    }
                }
            }
            JOINT LeftShoulder
            {
                OFFSET 3.708222 19.598145 -0.368577
                CHANNELS 3 Zrotation Xrotation Yrotation
                JOINT LeftArm
                {
                    OFFSET 11.172601 0.000000 0.000000
                    CHANNELS 3 Zrotation Xrotation Yrotation
                    JOINT LeftForeArm
                    {
                        OFFSET 28.642139 0.000000 0.000000
                        CHANNELS 3 Zrotation Xrotation Yrotation
                        JOINT LeftHand
                        {
                            OFFSET 23.934578 0.000000 0.000000
                            CHANNELS 3 Zrotation Xrotation Yrotation
                            End Site
                            {
                                OFFSET 13.854450 0.000000 0.000000
                            }
                        }
                    }
                }
            }
            JOINT RightShoulder
            {
                OFFSET -3.636642 19.598145 -0.368577
                CHANNELS 3 Zrotation Xrotation Yrotation
                JOINT RightArm
                {
                    OFFSET -11.172601 0.000000 0.000000
                    CHANNELS 3 Zrotation Xrotation Yrotation
                    JOINT RightForeArm
                    {
                        OFFSET -28.642139 0.000000 0.000000
                        CHANNELS 3 Zrotation Xrotation Yrotation
                        JOINT RightHand
                        {
                            OFFSET -23.934578 0.000000 0.000000
                            CHANNELS 3 Zrotation Xrotation Yrotation
                            End Site
                            {
                                OFFSET -13.854450 0.000000 0.000000
                            }
                        }
                    }
                }
            }
        }
    }
    JOINT LeftUpLeg
    {
        OFFSET 9.236300 0.000000 0.000000
        CHANNELS 3 Zrotation Xrotation Yrotation
        JOINT LeftLeg
        {
            OFFSET -0.000000 -40.706093 0.000000
            CHANNELS 3 Zrotation Xrotation Yrotation
            JOINT LeftFoot
            {
                OFFSET -0.000000 -40.997513 0.000000
                CHANNELS 3 Zrotation Xrotation Yrotation
                JOINT LeftToeBase
                {
                    OFFSET -0.000000 -6.003594 13.854450
                    CHANNELS 3 Zrotation Xrotation Yrotation
                    End Site
                    {
                        OFFSET -0.000000 0.000000 3.694520
                    }
                }
            }
        }
    }
    JOINT RightUpLeg
    {
        OFFSET -9.236300 0.000000 0.000000
        CHANNELS 3 Zrotation Xrotation Yrotation
        JOINT RightLeg
        {
            OFFSET -0.000000 -40.706093 0.000000
            CHANNELS 3 Zrotation Xrotation Yrotation
            JOINT RightFoot
            {
                OFFSET -0.000000 -40.997513 0.000000
                CHANNELS 3 Zrotation Xrotation Yrotation
                JOINT RightToeBase
                {
                    OFFSET -0.000000 -6.003594 13.854450
                    CHANNELS 3 Zrotation Xrotation Yrotation
                    End Site
                    {
                        OFFSET -0.000000 0.000000 3.694520
                    }
                }
            }
        }
    }
}
MOTION
Frames:    8
Frame Time:    0.004000
-18.218576    25.466377    -190.900269    6.443356    -0.630997    3.513685    -3.881037    51.791210    1.439198    -0.116644    7.990228    -0.437612    -7.839628    22.292723    1.901295    5.570808    15.153385    1.580623    9.392666    -4.097249    -22.407850    -32.279259    35.175934    -42.503529    22.835230    -10.445691    -23.804325    39.450001    -7.413753    -5.048571    -15.388849    0.907962    4.319903    27.632429    29.105286    64.580688    -19.592722    -0.569639    12.712433    -52.520210    0.912281    1.464170    -133.258820    -84.578957    -120.015526    -179.381439    34.896732    -171.625565    -3.981930    -40.531147    -11.479250    0.000000    0.000000    0.000000    -18.659264    -55.052216    -17.898607    -177.957077    19.459888    -155.460892    -12.215508    -5.944471    -20.953693    0.000000    0.000000    0.000000    
-18.202456    25.585386    -190.915100    6.489340    -0.484330    3.499689    -3.859544    51.776676    1.375307    -0.167684    8.121694    -0.486753    -7.972448    22.063690    1.927934    5.730473    15.201692    1.617556    9.404548    -4.157372    -22.291607    -32.225670    35.089569    -42.513420    22.845633    -10.499276    -23.951786    39.591282    -7.433520    -5.026084    -15.529508    0.809503    4.296243    27.713356    29.012131    64.638916    -19.508417    -0.601738    12.754500    -52.685665    0.864876    1.485060    -132.958466    -84.593063    -119.669739    -179.375656    35.084042    -171.620514    -3.903735    -40.555012    -11.466045    0.000000    0.000000    0.000000    -18.746956    -55.055260    -17.920378    -177.961578    19.626911    -155.414536    -11.934674    -6.160179    -21.111076    0.000000    0.000000    0.000000    
-18.181320    25.717943    -190.936020    6.547143    -0.301444    3.485033    -3.886521    51.802559    1.376231    -0.211567    8.096114    -0.496871    -7.954463    22.070030    1.888804    5.793004    15.080806    1.584283    9.402864    -4.135619    -22.351686    -32.166954    34.973053    -42.504608    22.851244    -10.520622    -23.999233    39.765308    -7.460001    -5.047094    -15.539845    0.795929    4.267226    27.638109    28.967812    64.647163    -19.461630    -0.673985    12.795303    -52.892460    0.794591    1.477745    -132.627838    -84.598465    -119.366432    -179.300644    35.324909    -171.466156    -4.209831    -40.649979    -11.836280    0.000000    0.000000    0.000000    -18.879435    -55.098419    -17.955494    -178.000946    19.865841    -156.088394    -11.408309    -6.822528    -21.425600    0.000000    0.000000    0.000000    
-18.155298    25.882902    -190.982773    6.623314    -0.023384    3.471013    -3.920758    51.809288    1.375952    -0.273230    8.021747    -0.509869    -7.869147    22.048233    1.832502    5.797801    14.971791    1.537828    9.400895    -4.118104    -22.393837    -32.184273    34.715164    -42.463558    22.740219    -10.453802    -24.163605    39.998413    -7.411212    -5.094143    -15.446233    0.808298    4.202129    27.398806    28.901649    64.708710    -19.405073    -0.779347    12.841086    -53.101505    0.710088    1.432143    -132.718292    -84.540405    -119.366982    -179.311371    35.606808    -171.423294    -4.344625    -40.693226    -11.901934    0.000000    0.000000    0.000000    -19.088486    -55.223835    -18.034883    -177.738297    19.893013    -155.285873    -11.465002    -7.303346    -21.839577    0.000000    0.000000    0.000000    
-18.146082    26.038801    -191.020355    6.657035    0.205068    3.459990    -3.936732    51.820969    1.377422    -0.324109    7.971555    -0.513136    -7.801891    22.177483    1.770839    5.795249    14.701949    1.481642    9.380512    -4.065713    -22.477524    -32.072826    34.519661    -42.452126    22.654760    -10.439000    -24.245413    40.218006    -7.421408    -5.127832    -15.274469    0.939132    4.224720    26.892860    28.782305    64.851707    -19.377626    -0.957334    12.816791    -53.253872    0.586647    1.303925    -132.911285    -84.521095    -119.482712    -179.352615    35.855324    -171.332016    -4.330675    -40.683983    -11.848939    0.000000    0.000000    0.000000    -19.205040    -55.321526    -18.068794    -177.770248    20.118973    -155.305862    -11.547592    -7.496248    -21.820210    0.000000    0.000000    0.000000    
-18.138275    26.204945    -191.059082    6.680335    0.430591    3.447219    -3.982659    51.851398    1.417557    -0.318578    7.932510    -0.497247    -7.740791    22.206575    1.713800    5.785719    14.542525    1.431733    9.339748    -4.058273    -22.566103    -31.928442    34.405575    -42.474846    22.613997    -10.472172    -24.292820    40.459435    -7.473179    -5.146872    -15.253783    0.975348    4.175205    26.624760    28.719442    64.944435    -19.349804    -1.086930    12.805982    -53.471657    0.481628    1.238835    -132.981247    -84.507553    -119.527466    -179.368927    36.114414    -171.344650    -4.233186    -40.681507    -11.778543    0.000000    0.000000    0.000000    -19.285873    -55.412361    -18.126551    -177.818436    20.392416    -155.489166    -11.582762    -7.590711    -21.853815    0.000000    0.000000    0.000000    
-18.125753    26.374435    -191.094620    6.724146    0.643544    3.444099    -4.006369    51.882511    1.426881    -0.344951    7.917480    -0.498973    -7.707317    22.161793    1.682916    5.840154    14.495057    1.408161    9.345857    -4.043484    -22.656807    -31.798122    34.231216    -42.502476    22.499914    -10.559668    -24.382153    40.702843    -7.561281    -5.094408    -15.224624    0.966266    4.148548    26.412996    28.664389    64.985947    -19.312666    -1.181605    12.814780    -53.624424    0.408606    1.186405    -132.938446    -84.500000    -119.479462    -179.349335    36.375462    -171.417801    -4.383455    -40.546501    -11.854974    0.000000    0.000000    0.000000    -19.435253    -55.496525    -18.186604    -177.853607    20.627388    -155.303101    -11.497442    -7.740458    -22.045984    0.000000    0.000000    0.000000    
-18.101126    26.575375    -191.125412    6.802879    0.851697    3.433228    -4.074766    51.959763    1.451839    -0.329413    7.908506    -0.511775    -7.741923    22.017864    1.659163    5.902684    14.523471    1.391929    9.303966    -4.061198    -22.705652    -31.574860    34.148285    -42.592522    22.424995    -10.610977    -24.415518    41.030788    -7.631739    -5.074017    -15.251893    0.867825    4.113419    26.255350    28.664949    65.010422    -19.287580    -1.193880    12.786782    -53.764645    0.398031    1.164201    -132.508301    -84.509735    -119.010185    -179.316238    36.682938    -171.495483    -4.318055    -40.434788    -11.820212    0.000000    0.000000    0.000000    -19.626799    -55.559193    -18.246790    -177.781052    20.808777    -154.815094    -11.494046    -7.976051    -22.451178    0.000000    0.000000    0.000000    
